<svg width="171" height="170" fill="#fff" xmlns="http://www.w3.org/2000/svg"><path d="M156.559 122.4a5.484 5.484 0 01-2.884-7.186 5.473 5.473 0 017.2-2.873c2.774 1.186 4.071 4.41 2.884 7.183a7.702 7.702 0 01-.307.603c-1.368 2.356-4.327 3.383-6.893 2.273zm-17.501 29.941a5.476 5.476 0 01-7.709-.799c-1.917-2.336-1.562-5.783.774-7.701a5.504 5.504 0 017.718.783 5.502 5.502 0 01-.783 7.717zm26.312-67.435c-3.01.24-5.653-2.01-5.906-5.032a5.478 5.478 0 015.021-5.891c3.018-.254 5.661 1.996 5.914 5.015a5.51 5.51 0 01-.731 3.186 5.45 5.45 0 01-4.298 2.722zm-63.43 84.979c-2.976.617-5.866-1.314-6.478-4.264-.6-2.967 1.315-5.869 4.282-6.469a5.489 5.489 0 016.469 4.281 5.42 5.42 0 01-.623 3.84 5.43 5.43 0 01-3.65 2.612zm53.811-122.293a5.495 5.495 0 01-7.567-1.73 5.486 5.486 0 011.721-7.553 5.476 5.476 0 017.553 1.721 5.465 5.465 0 01.106 5.678 5.454 5.454 0 01-1.813 1.884zM60.899 168.241c-2.9-.859-4.578-3.903-3.718-6.802.836-2.893 3.877-4.572 6.784-3.727 2.894.834 4.563 3.892 3.727 6.788a5.626 5.626 0 01-.526 1.235 5.503 5.503 0 01-6.267 2.506zm61.5-147.222l-.125-.074-.125-.074a5.46 5.46 0 01-2.014-7.482c1.505-2.631 4.85-3.519 7.468-2.022l.156.09.142.083a5.47 5.47 0 011.989 7.487 5.475 5.475 0 01-7.491 1.992zM33.097 147.528a5.476 5.476 0 01-7.743.174c-2.185-2.091-2.256-5.573-.163-7.761 2.091-2.185 5.565-2.239 7.75-.148a5.473 5.473 0 01.95 6.694 5.364 5.364 0 01-.794 1.041zM87.722 10.951c-3.013-.122-5.357-2.665-5.251-5.687a5.461 5.461 0 015.672-5.26 5.487 5.487 0 015.277 5.682 5.438 5.438 0 01-.731 2.531 5.491 5.491 0 01-4.967 2.734zm-77.38 105.492a5.464 5.464 0 01-6.919-3.467c-.976-2.868.592-5.969 3.45-6.93a5.505 5.505 0 016.945 3.459 5.509 5.509 0 01-.475 4.498 5.492 5.492 0 01-3.001 2.44zm42.287-98.28c-2.725 1.311-6 .15-7.302-2.59-1.29-2.73-.126-6.004 2.605-7.29 2.74-1.303 6-.151 7.303 2.588.81 1.696.66 3.593-.22 5.11a5.432 5.432 0 01-2.386 2.182zM4.6 78.338a5.47 5.47 0 01-4.528-6.279 5.495 5.495 0 016.29-4.543A5.483 5.483 0 014.6 78.338zm20.318-37.491c-1.803 2.418-5.237 2.913-7.67 1.1-2.414-1.803-2.904-5.254-1.1-7.669 1.812-2.432 5.237-2.913 7.67-1.1a5.465 5.465 0 011.461 7.12c-.108.188-.236.37-.36.549zm118.593 74.891c-2.273-.959-3.335-3.604-2.35-5.883.976-2.265 3.618-3.326 5.883-2.353 2.278.985 3.325 3.619 2.349 5.883-.059.177-.15.336-.244.492a4.47 4.47 0 01-5.638 1.861zM129.19 140.24c-1.923 1.564-4.753 1.274-6.293-.655-1.576-1.906-1.285-4.736.638-6.301 1.923-1.567 4.753-1.274 6.304.638a4.497 4.497 0 01.404 5.089c-.268.458-.612.87-1.053 1.229zm21.541-55.171c-2.475.19-4.637-1.656-4.834-4.114a4.503 4.503 0 014.114-4.833c2.458-.2 4.634 1.655 4.833 4.113a4.559 4.559 0 01-.603 2.606 4.508 4.508 0 01-3.51 2.228zm-51.914 69.534a4.463 4.463 0 01-5.275-3.502 4.48 4.48 0 013.488-5.283c2.42-.495 4.785 1.067 5.297 3.497a4.53 4.53 0 01-.515 3.143 4.48 4.48 0 01-2.995 2.145zM142.859 54.53c-2.111 1.309-4.879.694-6.187-1.417a4.474 4.474 0 011.408-6.173c2.094-1.32 4.87-.68 6.173 1.406a4.472 4.472 0 01-1.394 6.184zm-77.608 98.713a4.47 4.47 0 01-3.052-5.55 4.483 4.483 0 015.558-3.067c2.364.697 3.747 3.187 3.041 5.565-.105.361-.247.68-.43.995a4.47 4.47 0 01-5.117 2.057zm50.31-120.441l.008-.014a.642.642 0 01-.062-.037c-.049-.029-.103-.04-.151-.069a4.5 4.5 0 01-1.656-6.133 4.475 4.475 0 016.125-1.642c.048.029.08.046.125.075.031.02.08.045.111.065a4.475 4.475 0 011.641 6.125 4.491 4.491 0 01-6.141 1.63zM42.502 136.305a4.467 4.467 0 01-6.341.123l-.009.017a4.505 4.505 0 01-.122-6.341c1.715-1.792 4.549-1.838 6.35-.137a4.5 4.5 0 01.121 6.338zM87.195 24.558a4.493 4.493 0 01-4.31-4.654 4.491 4.491 0 014.655-4.31 4.473 4.473 0 014.31 4.654 4.545 4.545 0 01-.595 2.082 4.535 4.535 0 01-4.06 2.228zM23.877 110.87c-2.341.797-4.887-.492-5.658-2.839a4.458 4.458 0 012.822-5.666c2.358-.786 4.887.492 5.684 2.833a4.526 4.526 0 01-.384 3.684 4.515 4.515 0 01-2.464 1.988zm34.615-80.398a4.49 4.49 0 01-5.98-2.14 4.467 4.467 0 012.131-5.965c2.227-1.072 4.902-.114 5.974 2.114a4.527 4.527 0 01-.17 4.187 4.506 4.506 0 01-1.955 1.804zM19.189 79.69c-2.438-.382-4.097-2.695-3.715-5.133.406-2.446 2.702-4.11 5.149-3.707 2.44.382 4.096 2.694 3.715 5.132a4.467 4.467 0 01-.555 1.537 4.464 4.464 0 01-4.594 2.17zm16.619-30.685c-1.474 1.995-4.281 2.396-6.276.92a4.483 4.483 0 01-.893-6.285c1.48-1.971 4.296-2.384 6.267-.904a4.495 4.495 0 011.192 5.843 2.26 2.26 0 01-.29.426zm96.56 61.049c-1.841-.794-2.7-2.916-1.906-4.756.793-1.841 2.927-2.714 4.782-1.912a3.645 3.645 0 011.897 4.773c-.057.137-.131.262-.205.387a3.622 3.622 0 01-4.568 1.508zm-11.601 19.851a3.62 3.62 0 01-5.098-.529 3.622 3.622 0 01.515-5.107 3.642 3.642 0 015.106.515 3.626 3.626 0 01.333 4.119c-.219.379-.504.72-.856 1.002zM138.219 85.2a3.637 3.637 0 01-3.917-3.329 3.651 3.651 0 013.328-3.917c2.006-.145 3.764 1.34 3.918 3.328a3.65 3.65 0 01-.493 2.122c-.577.993-1.604 1.707-2.836 1.795zm-42.062 56.331a3.613 3.613 0 01-4.276-2.819 3.639 3.639 0 012.828-4.293A3.638 3.638 0 0199 137.247a3.663 3.663 0 01-.42 2.543 3.56 3.56 0 01-2.424 1.741zm35.678-81.064a3.624 3.624 0 01-5.009-1.155 3.62 3.62 0 011.146-4.992c1.696-1.064 3.938-.567 5.001 1.129a3.645 3.645 0 01.069 3.775c-.285.49-.694.905-1.207 1.243zM68.97 140.43a3.613 3.613 0 01-2.478-4.5c.56-1.912 2.577-3.021 4.5-2.478a3.637 3.637 0 012.469 4.515c-.082.29-.2.56-.336.796-.827 1.426-2.517 2.154-4.156 1.667zm40.762-97.58a1.897 1.897 0 00-.094-.055c-.017-.008-.048-.028-.08-.045a3.605 3.605 0 01-1.328-4.95c.993-1.747 3.214-2.338 4.961-1.346.031.017.054.052.085.072.032.02.072.022.103.04a3.644 3.644 0 011.32 4.966 3.634 3.634 0 01-4.967 1.318zm-59.197 83.866a3.626 3.626 0 01-5.129.108 3.643 3.643 0 01-.122-5.138 3.647 3.647 0 015.146-.096 3.627 3.627 0 01.632 4.443 3.92 3.92 0 01-.527.683zm36.217-90.549a3.602 3.602 0 01-3.482-3.752 3.63 3.63 0 013.76-3.5 3.64 3.64 0 013.497 3.762 3.625 3.625 0 01-.498 1.695 3.575 3.575 0 01-3.277 1.795zm-51.3 69.93a3.6 3.6 0 01-4.588-2.282 3.619 3.619 0 012.29-4.602 3.639 3.639 0 014.594 2.307 3.636 3.636 0 01-.307 2.967 3.488 3.488 0 01-1.989 1.61zm28.033-65.125c-1.804.853-3.974.08-4.842-1.733a3.633 3.633 0 011.724-4.827 3.617 3.617 0 014.836 1.71 3.622 3.622 0 01-.128 3.388 3.76 3.76 0 01-1.59 1.462zM31.646 80.855a3.646 3.646 0 01-3.007-4.173c.33-1.986 2.188-3.334 4.173-3.004 1.969.319 3.317 2.18 3.004 4.17a3.654 3.654 0 01-4.17 3.007zM45.122 55.99a3.662 3.662 0 01-5.095.739 3.634 3.634 0 01-.723-5.086c1.19-1.613 3.468-1.938 5.087-.723 1.493 1.098 1.874 3.135.958 4.717-.074.128-.14.236-.227.352z"/></svg>