<svg width="171" height="170" viewBox="0 0 171 170" fill="white" xmlns="http://www.w3.org/2000/svg">
<path d="M156.559 122.4C153.786 121.214 152.489 117.991 153.675 115.214C154.872 112.427 158.084 111.144 160.875 112.341C163.649 113.527 164.946 116.751 163.759 119.524C163.657 119.74 163.563 119.937 163.452 120.127C162.084 122.483 159.125 123.51 156.559 122.4Z" fill="white"/>
<path d="M139.058 152.341C136.706 154.25 133.258 153.895 131.349 151.542C129.432 149.206 129.787 145.759 132.123 143.841C134.476 141.935 137.923 142.288 139.841 144.624C141.314 146.45 141.44 148.93 140.33 150.839C140.012 151.394 139.585 151.909 139.058 152.341Z" fill="white"/>
<path d="M165.37 84.9064C162.36 85.1453 159.717 82.8951 159.464 79.874C159.225 76.8642 161.475 74.2215 164.485 73.9825C167.503 73.7293 170.146 75.9795 170.399 78.9978C170.482 80.1642 170.209 81.2537 169.668 82.1839C168.8 83.6888 167.23 84.7613 165.37 84.9064Z" fill="white"/>
<path d="M101.94 169.885C98.9644 170.502 96.0741 168.571 95.4624 165.621C94.8622 162.654 96.7767 159.752 99.7438 159.152C102.711 158.551 105.61 160.466 106.213 163.433C106.497 164.801 106.241 166.153 105.59 167.273C104.827 168.585 103.539 169.566 101.94 169.885Z" fill="white"/>
<path d="M155.751 47.5917C153.174 49.199 149.8 48.4252 148.184 45.8621C146.583 43.3075 147.342 39.9251 149.905 38.3092C152.469 36.6934 155.857 37.4757 157.458 40.0303C158.591 41.8282 158.554 44.0016 157.564 45.7085C157.134 46.4509 156.52 47.1081 155.751 47.5917Z" fill="white"/>
<path d="M60.8987 168.241C57.9999 167.382 56.3215 164.338 57.1806 161.439C58.017 158.546 61.058 156.867 63.9654 157.712C66.8585 158.546 68.5284 161.604 67.692 164.5C67.5668 164.932 67.3848 165.356 67.1657 165.735C65.9396 167.851 63.3594 168.952 60.8987 168.241Z" fill="white"/>
<path d="M122.399 21.0188C122.351 20.9903 122.306 20.9647 122.274 20.9448C122.226 20.9164 122.181 20.8908 122.149 20.8708C119.518 19.366 118.613 16.012 120.135 13.3891C121.64 10.7577 124.985 9.87017 127.603 11.3665C127.665 11.4035 127.714 11.4319 127.759 11.4575C127.807 11.486 127.853 11.5116 127.901 11.54C130.524 13.062 131.412 16.4074 129.89 19.0274C128.365 21.6503 125.019 22.5407 122.399 21.0188Z" fill="white"/>
<path d="M33.097 147.528C31.0061 149.716 27.5383 149.792 25.3536 147.702C23.1688 145.611 23.0976 142.129 25.1914 139.941C27.2823 137.756 30.7557 137.702 32.9405 139.793C34.801 141.571 35.1281 144.356 33.8906 146.487C33.6687 146.868 33.4099 147.204 33.097 147.528Z" fill="white"/>
<path d="M87.7218 10.9512C84.7092 10.8289 82.3653 8.28564 82.4705 5.2645C82.5758 2.24337 85.1302 -0.117778 88.1428 0.00454648C91.1782 0.121182 93.5252 2.6644 93.42 5.68553C93.3858 6.61577 93.1184 7.47488 92.6888 8.21736C91.6989 9.92137 89.8298 11.0308 87.7218 10.9512Z" fill="white"/>
<path d="M10.3416 116.443C7.46838 117.394 4.37326 115.852 3.42311 112.976C2.44736 110.108 4.01486 107.007 6.87384 106.046C9.74705 105.096 12.8423 106.637 13.818 109.505C14.3272 111.067 14.1109 112.674 13.3428 114.003C12.6999 115.109 11.653 116.002 10.3416 116.443Z" fill="white"/>
<path d="M52.6289 18.1626C49.9036 19.474 46.6295 18.3134 45.3266 15.5739C44.0379 12.8429 45.2013 9.5686 47.9322 8.28277C50.6717 6.97987 53.9319 8.132 55.2348 10.8715C56.0455 12.567 55.8949 14.4644 55.0158 15.9807C54.4839 16.8939 53.673 17.6705 52.6289 18.1626Z" fill="white"/>
<path d="M4.60093 78.3378C1.61109 77.8485 -0.414326 75.0464 0.0721277 72.0594C0.561426 69.0696 3.36351 67.0441 6.36188 67.5163C9.35173 68.0056 11.3686 70.8219 10.8907 73.7947C10.7826 74.4917 10.5465 75.1147 10.2165 75.6836C9.11556 77.5811 6.9194 78.7104 4.60093 78.3378Z" fill="white"/>
<path d="M24.9182 40.8468C23.1146 43.2648 19.681 43.7598 17.2488 41.9477C14.8336 40.1441 14.3442 36.6934 16.1478 34.2782C17.9599 31.8459 21.3849 31.3652 23.8172 33.1773C26.0674 34.8642 26.6564 37.928 25.2795 40.2977C25.1714 40.4855 25.0434 40.6675 24.9182 40.8468Z" fill="white"/>
<path d="M143.511 115.738C141.238 114.779 140.176 112.134 141.161 109.855C142.137 107.59 144.779 106.529 147.044 107.502C149.322 108.487 150.369 111.121 149.393 113.385C149.334 113.562 149.243 113.721 149.149 113.877C148.034 115.806 145.624 116.648 143.511 115.738Z" fill="white"/>
<path d="M129.19 140.24C127.267 141.804 124.437 141.514 122.897 139.585C121.321 137.679 121.612 134.849 123.535 133.284C125.458 131.717 128.288 132.01 129.839 133.922C131.053 135.429 131.15 137.449 130.243 139.011C129.975 139.469 129.631 139.881 129.19 140.24Z" fill="white"/>
<path d="M150.731 85.0685C148.256 85.2591 146.094 83.4129 145.897 80.955C145.707 78.4801 147.544 76.3351 150.011 76.1218C152.469 75.9226 154.645 77.7774 154.844 80.2353C154.909 81.1797 154.682 82.0815 154.241 82.8411C153.524 84.0729 152.244 84.9348 150.731 85.0685Z" fill="white"/>
<path d="M98.8165 154.603C96.3956 155.101 94.0316 153.536 93.5423 151.101C93.0473 148.68 94.6091 146.316 97.03 145.818C99.4509 145.323 101.815 146.885 102.327 149.315C102.543 150.433 102.344 151.542 101.812 152.458C101.189 153.53 100.134 154.333 98.8165 154.603Z" fill="white"/>
<path d="M142.859 54.53C140.748 55.8386 137.98 55.2242 136.672 53.1133C135.355 51.0196 135.983 48.2602 138.08 46.9402C140.174 45.6203 142.95 46.2603 144.253 48.3455C145.178 49.8106 145.155 51.5914 144.35 52.9825C143.988 53.6026 143.488 54.1375 142.859 54.53Z" fill="white"/>
<path d="M65.2511 153.243C62.8643 152.555 61.5045 150.057 62.1987 147.693C62.8871 145.306 65.3707 143.938 67.7574 144.626C70.1214 145.323 71.5039 147.813 70.7984 150.191C70.6931 150.552 70.5509 150.871 70.3688 151.186C69.3618 152.927 67.2765 153.829 65.2511 153.243Z" fill="white"/>
<path d="M115.561 32.8017L115.569 32.7875C115.552 32.779 115.538 32.7704 115.507 32.7505C115.458 32.7221 115.404 32.7107 115.356 32.6823C113.208 31.4363 112.468 28.7053 113.7 26.549C114.946 24.4012 117.677 23.6615 119.825 24.9075C119.873 24.936 119.905 24.953 119.95 24.9815C119.981 25.0014 120.03 25.027 120.061 25.0469C122.209 26.2929 122.948 29.0239 121.702 31.1717C120.454 33.3195 117.708 34.0477 115.561 32.8017Z" fill="white"/>
<path d="M42.5015 136.305C40.7861 138.098 37.9442 138.157 36.1606 136.428C36.1606 136.428 36.1606 136.428 36.1521 136.445C34.3855 134.724 34.3173 131.896 36.0298 130.104C37.7452 128.312 40.5786 128.266 42.3793 129.967C43.8899 131.435 44.1601 133.703 43.1417 135.455C42.9682 135.754 42.7519 136.052 42.5015 136.305Z" fill="white"/>
<path d="M87.1955 24.5577C84.7234 24.4524 82.7977 22.3871 82.8858 19.9037C82.9883 17.4316 85.0564 15.5057 87.5398 15.5939C90.0205 15.682 91.9549 17.7758 91.8497 20.2479C91.8212 20.9904 91.6106 21.7129 91.255 22.3302C90.4556 23.7043 88.9194 24.6089 87.1955 24.5577Z" fill="white"/>
<path d="M23.8769 110.87C21.5357 111.667 18.9898 110.378 18.2189 108.031C17.4223 105.69 18.6852 103.15 21.0407 102.365C23.399 101.579 25.9281 102.857 26.7247 105.198C27.1428 106.475 26.9636 107.807 26.3406 108.882C25.82 109.778 24.958 110.503 23.8769 110.87Z" fill="white"/>
<path d="M58.4921 30.4719C56.2504 31.5359 53.5764 30.5743 52.5124 28.3327C51.4485 26.091 52.3985 23.4311 54.6431 22.3672C56.8705 21.2947 59.5447 22.2534 60.6172 24.4809C61.2686 25.8719 61.1605 27.4366 60.4465 28.6683C60.0055 29.4307 59.3427 30.0594 58.4921 30.4719Z" fill="white"/>
<path d="M19.1889 79.6891C16.751 79.3079 15.0924 76.9951 15.4736 74.5571C15.8804 72.1106 18.1761 70.4465 20.6226 70.8504C23.0634 71.2316 24.7191 73.5444 24.3379 75.9824C24.2469 76.5428 24.0506 77.0605 23.7832 77.5185C22.8757 79.0831 21.075 80.002 19.1889 79.6891Z" fill="white"/>
<path d="M35.808 49.0055C34.3344 50.9997 31.5266 51.4008 29.5325 49.9244C27.5468 48.4337 27.1485 45.6288 28.6391 43.6403C30.1184 41.6689 32.9347 41.2564 34.9061 42.7356C36.7439 44.1182 37.2246 46.6358 36.0981 48.5788C36.0156 48.7239 35.9246 48.8803 35.808 49.0055Z" fill="white"/>
<path d="M132.368 110.054C130.527 109.26 129.668 107.138 130.462 105.298C131.255 103.457 133.389 102.584 135.244 103.386C137.07 104.171 137.932 106.319 137.141 108.159C137.084 108.296 137.01 108.421 136.936 108.546C136.032 110.111 134.074 110.791 132.368 110.054Z" fill="white"/>
<path d="M120.767 129.905C119.205 131.174 116.923 130.926 115.669 129.376C114.4 127.817 114.625 125.538 116.184 124.269C117.745 123.001 120.027 123.248 121.29 124.784C122.28 125.99 122.357 127.64 121.623 128.903C121.404 129.282 121.119 129.623 120.767 129.905Z" fill="white"/>
<path d="M138.219 85.1994C136.205 85.3587 134.473 83.868 134.302 81.871C134.148 79.8797 135.63 78.1244 137.63 77.9538C139.636 77.8087 141.394 79.2936 141.548 81.2821C141.604 82.0559 141.422 82.7699 141.055 83.4043C140.478 84.3971 139.451 85.1112 138.219 85.1994Z" fill="white"/>
<path d="M96.1566 141.531C94.1909 141.932 92.2821 140.678 91.881 138.712C91.4799 136.746 92.7459 134.82 94.7087 134.419C96.6716 134.018 98.6003 135.281 99.0014 137.247C99.1749 138.152 99.0127 139.048 98.5803 139.79C98.0768 140.661 97.2263 141.329 96.1566 141.531Z" fill="white"/>
<path d="M131.835 60.4671C130.14 61.531 127.896 61.0303 126.826 59.3121C125.762 57.6166 126.277 55.3835 127.972 54.3195C129.668 53.2556 131.91 53.7534 132.973 55.4489C133.719 56.638 133.702 58.086 133.042 59.2239C132.757 59.7132 132.348 60.1285 131.835 60.4671Z" fill="white"/>
<path d="M68.9692 140.43C67.0319 139.876 65.9225 137.859 66.4915 135.93C67.0519 134.018 69.0688 132.909 70.9918 133.452C72.9206 134.021 74.03 136.038 73.461 137.967C73.3785 138.257 73.2619 138.527 73.1254 138.763C72.2976 140.189 70.6078 140.917 68.9692 140.43Z" fill="white"/>
<path d="M109.732 42.8495C109.7 42.8295 109.669 42.8125 109.638 42.7954C109.621 42.7869 109.59 42.767 109.558 42.7499C107.812 41.7571 107.223 39.5353 108.23 37.8C109.223 36.0533 111.444 35.4616 113.191 36.4544C113.222 36.4715 113.245 36.5056 113.276 36.5256C113.308 36.5455 113.348 36.5483 113.379 36.5654C115.117 37.5724 115.697 39.8113 114.699 41.5323C113.692 43.2676 111.47 43.8565 109.732 42.8495Z" fill="white"/>
<path d="M50.5352 126.716C49.1441 128.169 46.8426 128.206 45.406 126.824C43.9552 125.433 43.9069 123.146 45.2838 121.686C46.6919 120.244 48.9763 120.198 50.43 121.59C51.6646 122.773 51.8865 124.611 51.0615 126.033C50.9221 126.266 50.7429 126.5 50.5352 126.716Z" fill="white"/>
<path d="M86.752 36.1671C84.7436 36.0988 83.1873 34.4147 83.2698 32.4149C83.3381 30.4065 85.0222 28.8504 87.0306 28.9158C89.0305 28.9983 90.5951 30.6682 90.5268 32.6766C90.5041 33.2967 90.3221 33.8657 90.029 34.3721C89.3804 35.4957 88.1487 36.2354 86.752 36.1671Z" fill="white"/>
<path d="M35.4523 106.097C33.5378 106.74 31.4895 105.721 30.8636 103.815C30.2207 101.901 31.2393 99.8527 33.1538 99.2126C35.0569 98.5868 37.1051 99.6052 37.7481 101.52C38.0866 102.538 37.9443 103.619 37.4407 104.487C37.0112 105.229 36.3285 105.827 35.4523 106.097Z" fill="white"/>
<path d="M63.4847 40.9719C61.6811 41.8253 59.5105 41.0515 58.6428 39.2394C57.7894 37.4358 58.5632 35.2653 60.3668 34.4119C62.1818 33.5414 64.3495 34.3151 65.2029 36.1216C65.7463 37.2595 65.6494 38.514 65.0748 39.5097C64.7163 40.1241 64.1703 40.6305 63.4847 40.9719Z" fill="white"/>
<path d="M31.646 80.8554C29.6604 80.5283 28.3205 78.6536 28.6391 76.6822C28.9691 74.6965 30.8266 73.3481 32.8123 73.6781C34.7808 73.9967 36.1293 75.8572 35.8164 77.8485C35.7482 78.2952 35.5917 78.7105 35.3698 79.0888C34.6387 80.3548 33.1765 81.0887 31.646 80.8554Z" fill="white"/>
<path d="M45.1217 55.9894C43.9184 57.591 41.6368 57.9182 40.0267 56.729C38.4251 55.5257 38.098 53.2471 39.3042 51.6426C40.4933 50.0296 42.7719 49.7053 44.3905 50.9201C45.884 52.0181 46.2653 54.055 45.3493 55.6367C45.2754 55.7647 45.2099 55.8728 45.1217 55.9894Z" fill="white"/>
</svg>
