<svg width="22" height="22" viewBox="0 0 22 22" fill="none" xmlns="http://www.w3.org/2000/svg">
<path d="M20.8858 11.2754L11.2754 20.8859C11.1232 21.0381 10.8764 21.0381 10.7246 20.8859L1.11416 11.2754C0.961948 11.1232 0.961948 10.8764 1.11416 10.7246L10.7246 1.11416C10.8768 0.961948 11.1236 0.961948 11.2754 1.11416L20.8858 10.7246C21.0381 10.8764 21.0381 11.1232 20.8858 11.2754Z" stroke="#FFBFF9" stroke-width="1.7064" stroke-miterlimit="10"/>
<path d="M16.6521 11.1575L11.1575 16.6521C11.0703 16.7389 10.9294 16.7389 10.8425 16.6521L5.34753 11.1575C5.26072 11.0703 5.26072 10.9293 5.34753 10.8425L10.8422 5.34791C10.929 5.26072 11.0703 5.26072 11.1571 5.34791L16.6517 10.8425C16.7393 10.9293 16.7393 11.0703 16.6521 11.1575Z" fill="#FFBFF9"/>
</svg>
